<svg xmlns="http://www.w3.org/2000/svg" viewBox="0 0 64 64"><path fill="#fff" d="M22.5,14h26a2,2,0,0,1,2,2V38a12,12,0,0,1-12,12h-6a12,12,0,0,1-12-12V16A2,2,0,0,1,22.5,14Z"/><path fill="#f39600" d="M53.5 39.50488h-3a1 1 0 010-2h3a2.00229 2.00229 0 002-2v-16a2.00229 2.00229 0 00-2-2h-3a1 1 0 010-2h3a4.00427 4.00427 0 014 4v16A4.00426 4.00426 0 0153.5 39.50488zM12.5 54h46a0 0 0 010 0v0a7 7 0 01-7 7h-32a7 7 0 01-7-7v0A0 0 0 0112.5 54z"/><ellipse cx="13.747" cy="46.247" fill="#f39600" rx="10" ry="6" transform="rotate(-45 13.747 46.247)"/><rect width="20" height="4" x="25.5" y="50" fill="#333" rx="2"/><path fill="#f39600" d="M41.18481 30.98157a34.72514 34.72514 0 01-6.90527-1.33893 15.38943 15.38943 0 00-6.97-.441A7.53333 7.53333 0 0024.5 30.50146V38a8.00917 8.00917 0 008 8h6a8.00917 8.00917 0 008-8V30.05591A13.25281 13.25281 0 0141.18481 30.98157zM28.7583 11.625a1 1 0 001.48336-1.34086c-2.094-2.13809-1.2035-5.39649.02216-6.684a1 1 0 00-1.52749-1.291C26.89952 4.27276 25.94568 8.69662 28.7583 11.625zM34.59277 11.62546a1.0003 1.0003 0 001.48336-1.34184c-2.09378-2.13549-1.205-5.39869.02168-6.68305a.99994.99994 0 00-1.52652-1.292C32.73278 4.269 31.78 8.69818 34.59277 11.62546zM40.30273 11.625a1 1 0 001.48336-1.34086c-2.09309-2.13792-1.2036-5.39674.02217-6.684a1 1 0 00-1.5275-1.291C38.444 4.27249 37.49079 8.69659 40.30273 11.625z"/><path fill="#333" d="M58.5,52.95453H46.31573a2.98039,2.98039,0,0,0-1.46862-3.66583,13.01684,13.01684,0,0,0,6.48266-9.33417q.0502-.329.08825-.68219c.04936-.46445.07437-.90506.082-1.31781v-22a3.00328,3.00328,0,0,0-3-3h-26a3.00328,3.00328,0,0,0-3,3V37.2309c-5.89313-2.024-15.16937,6.33679-14.98553,12.741-.22913,3.98578,3.46038,6.26013,7.10083,5.27289A8.01781,8.01781,0,0,0,19.5,61.95453h32a7.99872,7.99872,0,0,0,8-8A1,1,0,0,0,58.5,52.95453Zm-37-37a1.0013,1.0013,0,0,1,1-1h26a1.0013,1.0013,0,0,1,1,1v22a11.01245,11.01245,0,0,1-11,11h-6a11.01245,11.01245,0,0,1-11-11Zm21.99994,37H27.5a1.0002,1.0002,0,0,1,.00006-2H43.5A1.0002,1.0002,0,0,1,43.49994,52.95453Zm-18.81561,0H16.574a16.63749,16.63749,0,0,0,5.66053-7.05322,13.08022,13.08022,0,0,0,3.91839,3.38739A2.98031,2.98031,0,0,0,24.68433,52.95453Zm-14.47828-10.292c3.15894-3.15107,7.249-4.51972,9.3863-3.21686a12.8725,12.8725,0,0,0,.62841,2.73968L6.77423,48.25684A13.25766,13.25766,0,0,1,10.20605,42.66254ZM7.38721,52.56683a3.19089,3.19089,0,0,1-.85865-2.00457L20.7243,44.15295C19.6604,48.74872,12.02466,55.96484,7.38721,52.56683Zm48.356,5.63086A5.96181,5.96181,0,0,1,51.5,59.95453h-32a6.01943,6.01943,0,0,1-5.91553-5h43.833A5.955,5.955,0,0,1,55.74316,58.19769Z"/></svg>