<svg xmlns="http://www.w3.org/2000/svg" data-name="Layer 1" viewBox="0 0 24 24"><path fill="#e0e0e2" d="M17.38,22.59a1,1,0,0,1-1,.94H8.28a1,1,0,0,1-1-.94L6.55,9.53l-.22-4h12Z"/><polygon fill="#fdd331" points="17.11 20.71 7.55 20.71 6.55 9.53 18.11 9.53 17.11 20.71"/><polyline fill="none" points="6.33 .53 9.33 1.52 11.33 9.53"/><path fill="#fdd331" d="M23.32,5.53a5,5,0,0,1-5,5v-5h-5A5,5,0,0,1,14.78,2h0a5,5,0,0,1,8.53,3.54Z"/><line x1="21.87" x2="18.33" y1="1.98" y2="5.52" fill="none"/><line x1="21.86" x2="14.79" y1="9.06" y2="1.99" fill="none"/><path d="M22.33,1.63h0A5.47,5.47,0,0,0,13,5H10.82L9.92,1.4a.5.5,0,0,0-.33-.35l-3-1A.5.5,0,1,0,6.28,1L9,1.91,9.79,5H6.43a.5.5,0,0,0-.5.53l.22,4h0l.73,13.07A1.5,1.5,0,0,0,8.38,24h8.1A1.5,1.5,0,0,0,18,22.61h0L18.63,11a5.49,5.49,0,0,0,3.7-9.37Zm-7.4,1.09L17.23,5H14A4.47,4.47,0,0,1,14.93,2.73ZM7,6H10l.75,3H7.13ZM17,22.56a.5.5,0,0,1-.5.47H8.38a.5.5,0,0,1-.5-.47L7.8,21h9.27ZM17.13,20H7.74L7.19,10h10.5Zm.61-11H11.82l-.75-3h6.83Zm.2-4.71L15.64,2a4.47,4.47,0,0,1,2.3-.95Zm5,.71H19.64l2.3-2.3A4.47,4.47,0,0,1,22.89,5Zm-4-4a4.47,4.47,0,0,1,2.3.95l-2.3,2.3ZM18.69,10l0-.46v0h0l.16-2.85L21.23,9A4.5,4.5,0,0,1,18.69,10Zm3.25-1.68L19.64,6h3.24A4.47,4.47,0,0,1,21.94,8.32Z"/></svg>