<svg xmlns="http://www.w3.org/2000/svg" enable-background="new 0 0 512 512" viewBox="0 0 512 512"><path fill="#7bde9e" d="M236.3,86.5c-15.9,38-61.4,55.1-61.4,55.1s-19.7-44.5-3.8-82.5C187,21.1,232.5,4,232.5,4S252.2,48.5,236.3,86.5z"/><path fill="#51d27f" d="M236.3,86.5c-15.9,38-61.4,55.1-61.4,55.1s-0.9-2-2.1-5.5c14.7-8.5,35-23.9,44.6-46.7c12.6-30,3-63.9-1.7-77c9.7-5.7,16.9-8.4,16.9-8.4S252.3,48.5,236.3,86.5z"/><path fill="#7bde9e" d="M100.7,106.9c26.4,31.6,74.9,34.6,74.9,34.6s5.7-48.3-20.7-79.9C128.6,29.9,80,27,80,27S74.3,75.3,100.7,106.9z"/><path fill="#a6ebbf" d="M176,135.6c-0.1,3.7-0.4,5.9-0.4,5.9s-48.5-3-74.9-34.6C74.3,75.3,80,27,80,27s7.7,0.4,18.5,3c-0.6,13.8,0.3,49.1,21.1,74.1C135.6,123.1,159.5,131.8,176,135.6z"/><path fill="#fc898c" d="M283.9,459.6l65.3-405.9l72.9-19c7.5-1.9,12-9.6,10-17.1c-2-7.5-9.6-12-17.1-10l-81.8,21.3c-5.4,1.4-9.4,5.9-10.3,11.3l-67.2,418L283.9,459.6z"/><path fill="#f96364" d="M422.1,34.8l-72.9,18.9l-65.3,405.8l-28.2-1.3l1.5-9.6l14.2,0.7l63.9-397c0.9-5.4,4.8-9.8,10.1-11.2l63.4-16.5c7.4-1.9,12.5-9.1,11-16.6c0-0.3-0.1-0.6-0.2-0.9c5.8,0.4,11,4.5,12.5,10.4C434,25.2,429.5,32.9,422.1,34.8z"/><path fill="#d3f0fd" d="M361.2,172.3H150.2c-24.8,8.3-42.8,31.7-42.8,59.3v233.1c0,23.9,19.4,43.3,43.3,43.3h210.1c23.9,0,43.3-19.4,43.3-43.3V231.6C404,204,386.1,180.6,361.2,172.3z"/><path fill="#a6e1fb" d="M404,231.6v233.1c0,23.9-19.4,43.3-43.3,43.3h-32.6c23.9,0,43.3-19.4,43.3-43.3V231.6c0-27.6-17.9-51-42.7-59.3h32.6C386.1,180.6,404,204,404,231.6z"/><path fill="#e5f6fe" d="M183.2,508h-32.6c-23.9,0-43.2-19.4-43.2-43.3V231.6c0-27.6,17.9-51,42.8-59.3h32.6c-24.9,8.3-42.8,31.7-42.8,59.3v233.1C140,488.6,159.3,508,183.2,508z"/><path fill="#be90be" d="M140,238.5v226.2c0,5.9,4.8,10.7,10.7,10.7h210.1c5.9,0,10.7-4.8,10.7-10.7V238.5H140z"/><path fill="#a76ba7" d="M371.4,238.5v226.2c0,5.9-4.8,10.8-10.7,10.8h-32.6c5.9,0,10.7-4.8,10.7-10.8V238.5H371.4z"/><path fill="#d3b4d3" d="M183.2,475.4h-32.6c-5.9,0-10.7-4.8-10.7-10.8V238.5h32.6v226.2C172.6,470.6,177.3,475.4,183.2,475.4z"/><path fill="#a6e1fb" d="M379.9,149.7c0,12.5-10.1,22.6-22.6,22.6H154.1c-12.5,0-22.6-10.1-22.6-22.6c0-6.3,2.6-11.9,6.7-16c4.1-4.1,9.7-6.7,16-6.7h203.1C369.7,127,379.9,137.2,379.9,149.7z"/><path fill="#7ad1f9" d="M379.9,149.7c0,12.5-10.1,22.6-22.6,22.6h-32.6c12.5,0,22.6-10.1,22.6-22.6c0-12.5-10.1-22.7-22.6-22.7h32.6C369.7,127,379.9,137.2,379.9,149.7z"/><path fill="#d3f0fd" d="M186.7,172.3h-32.6c-12.5,0-22.6-10.1-22.6-22.6c0-6.3,2.6-11.9,6.7-16c4.1-4.1,9.7-6.7,16-6.7h32.6c-6.2,0-11.9,2.5-16,6.7c-4.1,4.1-6.7,9.7-6.7,16C164.1,162.2,174.2,172.3,186.7,172.3z"/><path fill="#333" d="M371.4,234.5H140c-2.2,0-4,1.8-4,4v226.2c0,8.1,6.6,14.7,14.7,14.7h210.1c8.1,0,14.7-6.6,14.7-14.7V238.5C375.4,236.3,373.6,234.5,371.4,234.5z M367.4,464.7c0,3.7-3,6.7-6.7,6.7H150.6c-3.7,0-6.7-3-6.7-6.7V242.5h223.5V464.7z"/><path fill="#333" d="M436,16.7c-2.5-9.7-12.3-15.4-22-12.9l-81.8,21.3c-6.9,1.8-12.1,7.5-13.2,14.6L305.6,123H213c10.9-9.3,21.2-21.2,27-35c16.4-39.1-3-83.8-3.8-85.7c-0.9-1.9-3.1-2.9-5.1-2.1c-1.9,0.7-47.3,18.2-63.7,57.3c-1.3,3.1-2.4,6.3-3.3,9.8c-1.8-2.9-3.8-5.6-6-8.3c-27.2-32.6-75.7-35.9-77.8-36c-2-0.1-4,1.4-4.2,3.5c-0.2,2-5.6,50.4,21.6,83c9.8,11.8,22.4,19.7,34.6,25c-3.1,4.4-4.8,9.7-4.8,15.2c0,9.5,5,17.8,12.5,22.5c-22.2,11.2-36.6,34-36.6,59.4v233.1c0,26.1,21.2,47.3,47.3,47.3h210.1c26.1,0,47.3-21.2,47.3-47.3V231.6c0-25.4-14.4-48.2-36.6-59.4c7.5-4.7,12.5-13,12.5-22.5c0-14.7-11.9-26.7-26.6-26.7h-15.2L352.7,57l70.4-18.3h0C432.7,36.2,438.4,26.3,436,16.7z M174.8,60.7c12.5-29.8,44.7-46.5,55.5-51.4c4.1,11.2,14.8,45.9,2.3,75.7c-7.1,16.9-20.4,29.4-32.5,38.1H187l27-64.3c0.9-2-0.1-4.4-2.1-5.2c-2.1-0.9-4.4,0.1-5.2,2.1l-26.7,63.8c-0.8-11.9-3.3-26.9-9.9-41.3C170.9,71.8,172.5,66,174.8,60.7z M103.8,104.4c-20.7-24.8-20.7-61.1-20.1-73c11.8,1.5,47.5,7.9,68.2,32.7C165.2,80,170.8,102,171.8,123h-6.4L120,68.6c-1.4-1.7-3.9-1.9-5.6-0.5c-1.7,1.4-1.9,3.9-0.5,5.6L155,123h-0.9c-5.8,0-11.3,1.9-15.8,5.2C126.2,123.3,113.4,115.9,103.8,104.4z M360.6,176.3c23.6,8.1,39.4,30.3,39.4,55.3v233.1c0,21.7-17.6,39.3-39.3,39.3H150.6c-21.6,0-39.3-17.6-39.3-39.3V231.6c0-25,15.8-47.2,39.4-55.3C176.5,176.3,334.7,176.3,360.6,176.3z M357.3,131c10.3,0,18.6,8.4,18.6,18.7c0,10.3-8.4,18.6-18.6,18.6H154.1c-10.3,0-18.6-8.4-18.6-18.6c0-10,8.1-18.7,18.6-18.7H357.3z M421.1,30.9l-72.9,19c-1.5,0.4-2.7,1.7-2.9,3.2L334,123h-20.3l13.2-82.1c0.6-3.9,3.5-7.1,7.3-8.1L416,11.6c5.3-1.4,10.8,1.7,12.2,7.2C429.6,24.1,426.4,29.5,421.1,30.9z"/></svg>