<svg id="SvgjsSvg1001" width="288" height="288" xmlns="http://www.w3.org/2000/svg" version="1.1" xmlns:xlink="http://www.w3.org/1999/xlink" xmlns:svgjs="http://svgjs.com/svgjs"><defs id="SvgjsDefs1002"></defs><g id="SvgjsG1008"><svg xmlns="http://www.w3.org/2000/svg" width="288" height="288" viewBox="0 0 8.467 8.467"><g transform="translate(-17.19 -50.667)" fill="#000000" class="color000 svgShape"><path style="line-height:normal;font-variant-ligatures:normal;font-variant-position:normal;font-variant-caps:normal;font-variant-numeric:normal;font-variant-alternates:normal;font-feature-settings:normal;text-indent:0;text-align:start;text-decoration-line:none;text-decoration-style:solid;text-decoration-color:#000;text-transform:none;text-orientation:mixed;shape-padding:0;isolation:auto;mix-blend-mode:normal" fill="#0d6efd" d="m 20.365165,51.857298 c -0.388653,0 -0.72544,0.215453 -0.908472,0.530717 h 3.025655 c 0.726247,0 1.323434,0.596514 1.323434,1.322917 V 56.8849 c 0,0.08008 -0.0083,0.158311 -0.02222,0.234611 0.465562,-0.110932 0.815971,-0.529799 0.815971,-1.027845 V 52.91615 c 0,-0.581742 -0.476595,-1.058852 -1.058334,-1.058852 z" color="#000" font-family="sans-serif" font-weight="400" overflow="visible" paint-order="markers fill stroke" class="color0087d1 svgShape"></path><path style="line-height:normal;font-variant-ligatures:normal;font-variant-position:normal;font-variant-caps:normal;font-variant-numeric:normal;font-variant-alternates:normal;font-feature-settings:normal;text-indent:0;text-align:start;text-decoration-line:none;text-decoration-style:solid;text-decoration-color:#000;text-transform:none;text-orientation:mixed;shape-padding:0;isolation:auto;mix-blend-mode:normal" fill="#0d6efd" d="m 19.306832,52.652599 c -0.58174,0 -1.05885,0.476594 -1.05885,1.058333 v 1.591635 1.582333 c 0,0.581739 0.47711,1.058333 1.05885,1.058333 h 3.175516 c 0.581739,0 1.05885,-0.476594 1.05885,-1.058333 v -3.173968 c 0,-0.581739 -0.477111,-1.058333 -1.05885,-1.058333 z" color="#000" font-family="sans-serif" font-weight="400" overflow="visible" paint-order="markers fill stroke" class="color0087d1 svgShape"></path><path style="line-height:normal;font-variant-ligatures:normal;font-variant-position:normal;font-variant-caps:normal;font-variant-numeric:normal;font-variant-alternates:normal;font-feature-settings:normal;text-indent:0;text-align:start;text-decoration-line:none;text-decoration-style:solid;text-decoration-color:#000;text-transform:none;text-orientation:mixed;shape-padding:0;isolation:auto;mix-blend-mode:normal" fill="#0d6efd" d="m 20.902083,52.652599 v 5.290634 h 1.580265 c 0.581739,0 1.05885,-0.476594 1.05885,-1.058333 v -3.173968 c 0,-0.581739 -0.477111,-1.058333 -1.05885,-1.058333 z" color="#000" font-family="sans-serif" font-weight="400" overflow="visible" paint-order="markers fill stroke" class="color0178be svgShape"></path><path style="line-height:normal;font-variant-ligatures:normal;font-variant-position:normal;font-variant-caps:normal;font-variant-numeric:normal;font-variant-alternates:normal;font-feature-settings:normal;text-indent:0;text-align:start;text-decoration-line:none;text-decoration-style:solid;text-decoration-color:#000;text-transform:none;text-orientation:mixed;shape-padding:0;isolation:auto;mix-blend-mode:normal" fill="#0d6efd" d="m 20.902083,51.857298 v 0.530717 h 1.580265 c 0.726247,0 1.323434,0.596514 1.323434,1.322917 V 56.8849 c 0,0.08008 -0.0083,0.158311 -0.02222,0.234611 0.465562,-0.110932 0.815971,-0.529799 0.815971,-1.027845 V 52.91615 c 0,-0.581742 -0.476595,-1.058852 -1.058334,-1.058852 z" color="#000" font-family="sans-serif" font-weight="400" overflow="visible" paint-order="markers fill stroke" class="color0178be svgShape"></path><path style="line-height:normal;font-variant-ligatures:normal;font-variant-position:normal;font-variant-caps:normal;font-variant-numeric:normal;font-variant-alternates:normal;font-feature-settings:normal;text-indent:0;text-align:start;text-decoration-line:none;text-decoration-style:solid;text-decoration-color:#000;text-transform:none;text-orientation:mixed;shape-padding:0;isolation:auto;mix-blend-mode:normal" fill="#ffffff" d="M 20.897432,56.095801 A 0.26460981,0.26460981 0 0 1 20.6375,55.826051 v -0.263549 h -0.265617 a 0.2646485,0.2646485 0 1 1 0,-0.529167 H 20.6375 v -0.263549 a 0.26460981,0.26460981 0 1 1 0.527616,0 v 0.263549 h 0.265617 a 0.2646485,0.2646485 0 1 1 0,0.529167 h -0.265617 v 0.263549 a 0.26460981,0.26460981 0 0 1 -0.267684,0.26975 z" color="#000" font-family="sans-serif" font-weight="400" overflow="visible" class="colorc8d4dd svgShape"></path><path style="line-height:normal;font-variant-ligatures:normal;font-variant-position:normal;font-variant-caps:normal;font-variant-numeric:normal;font-variant-alternates:normal;font-feature-settings:normal;text-indent:0;text-align:start;text-decoration-line:none;text-decoration-style:solid;text-decoration-color:#000;text-transform:none;text-orientation:mixed;shape-padding:0;isolation:auto;mix-blend-mode:normal" fill="#fdfdfd" d="m 20.908801,54.48513 v 1.610238 a 0.26460981,0.26460981 0 0 0 0.256315,-0.269235 v -0.263551 h 0.265617 a 0.2646485,0.2646485 0 1 0 0,-0.529167 H 21.165116 V 54.769866 A 0.26460981,0.26460981 0 0 0 20.908801,54.48513 Z" color="#000" font-family="sans-serif" font-weight="400" overflow="visible" class="coloraebdc0 svgShape"></path></g></svg></g></svg>