<svg id="SvgjsSvg1001" width="288" height="288" xmlns="http://www.w3.org/2000/svg" version="1.1" xmlns:xlink="http://www.w3.org/1999/xlink" xmlns:svgjs="http://svgjs.com/svgjs"><defs id="SvgjsDefs1002"></defs><g id="SvgjsG1008"><svg xmlns="http://www.w3.org/2000/svg" xmlns:xlink="http://www.w3.org/1999/xlink" width="288" height="288" viewBox="0 0 26 26"><defs><linearGradient id="b" x1="868.253" x2="937.656" y1="521.354" y2="588.736" gradientTransform="translate(-673.042 625.151) scale(.78112)" gradientUnits="userSpaceOnUse" xlink:href="#a"></linearGradient><linearGradient id="a"><stop offset="0" stop-color="#0d6efd" class="stopColor24f3d2 svgShape"></stop><stop offset=".394" stop-color="#bfd5f7" class="stopColor0674f0 svgShape"></stop><stop offset=".507" stop-color="#6961b5" class="stopColor6961b5 svgShape"></stop><stop offset=".813" stop-color="#f34660" class="stopColorf34660 svgShape"></stop><stop offset="1" stop-color="#ee078d" class="stopColoree078d svgShape"></stop></linearGradient></defs><g transform="translate(-1.03 -1096.225) scale(1.06642)" fill="#000000" class="color000 svgShape"><rect width="24.381" height="24.381" x=".965" y="1027.95" fill="url(#b)" rx="5.152" ry="5.152"></rect><path style="line-height:normal;text-indent:0;text-align:start;text-decoration-line:none;text-decoration-style:solid;text-decoration-color:#000;text-transform:none;block-progression:tb;isolation:auto;mix-blend-mode:normal" fill="#ffffff" fill-rule="evenodd" d="m 13.156627,1034.5143 c 3.112852,0 5.626274,2.5134 5.626308,5.6263 1.7e-5,3.1129 -2.513418,5.6264 -5.626308,5.6264 -3.11289,0 -5.6281568,-2.5135 -5.6281402,-5.6264 3.45e-5,-3.1129 2.5152862,-5.6263 5.6281402,-5.6263 z m 3.274688,5.1557 -6.5530386,0.011 c -0.6263662,0 -0.6245346,0.9408 0.00183,0.9396 l 6.5530376,-0.013 c 0.633981,0.01 0.632115,-0.9479 -0.0019,-0.9377 z" color="#000" font-family="sans-serif" font-weight="400" overflow="visible" class="colorfff svgShape"></path></g></svg></g></svg>